<svg xmlns="http://www.w3.org/2000/svg" fill="none" viewBox="0 0.5 353 353"><g clip-path="url(#clip0_105_264)"><path d="M0 0.5H353V286.816H0V0.5Z" fill="#003366"/><path d="M0 290.732H353V353.5H0V290.732Z" fill="#C20017"/><path d="M353 205.44H352.343C348.427 195.836 343.996 186.461 339.051 177.343H343.396C346.826 183.917 350.027 190.577 353 197.351V205.44ZM0 39.7159C17.3785 33.8849 35.2428 29.769 53.4216 27.3966L58.5951 0.5H100.526L91.1226 24.9099C102.413 24.8813 113.675 25.5387 124.879 26.8821L137.942 0.5H184.017L162.066 33.8278C191.192 41.3737 218.917 53.4929 244.185 69.7566C249.215 72.9865 254.103 76.3878 258.848 79.9035H252.188C224.262 60.2385 192.964 45.7755 159.836 37.2863L132.997 78.9317H113.732V107.286L66.1982 184.832H50.9921V210.756L2.28664 286.816H0.743158L123.107 30.5407C112.045 29.2545 100.898 28.6542 89.7792 28.74L0.342996 286.816H0M0 282.042L52.5641 31.4554C34.7569 33.9421 17.2355 38.1724 0.228664 44.0319H0" fill="white"/><path d="M145.116 144.358H170.898V120.263H145.116V108.772H176.5L174.785 84.6196H118.877V173.055H145.116V144.358ZM254.188 172.798H282.4L295.262 151.104L308.439 172.827H337.308L309.468 127.008L334.535 84.7625H305.952L295.176 103.113L284.001 84.7054H254.932L280.742 127.208L254.188 172.798ZM221.375 173.77C246.328 174.113 266.851 154.219 267.279 129.266C266.222 103.885 244.813 84.1623 219.403 85.1913C195.479 86.1917 176.328 105.342 175.328 129.266C175.728 154.248 196.308 174.17 221.289 173.77H221.375ZM213.258 109.858C213.286 105.485 216.745 101.941 221.089 101.741C225.577 101.827 229.207 105.399 229.378 109.858V147.388C229.064 151.847 225.205 155.191 220.746 154.877C216.716 154.591 213.543 151.39 213.258 147.388V109.858ZM151.09 239.082H177.786V221.389H151.09V209.356H183.617V190.205H130.481V272.896H184.017V253.002H151.09V239.082ZM265.993 190.205L255.761 237.539L245.756 190.205H228.092L218.574 238.025L208.656 190.205H187.59L206.712 272.896H225.92L235.324 225.505L245.013 272.896H263.821L283.029 190.205H265.993ZM335.736 227.563C330.248 222.504 323.96 221.161 316.9 219.16C308.553 216.816 303.951 216.559 303.951 211.7C304.294 208.098 307.496 205.469 311.097 205.812C311.126 205.812 311.154 205.812 311.154 205.812C316.471 205.383 321.33 208.899 322.559 214.101L340.595 208.098C337.251 195.522 325.589 186.975 312.583 187.547C293.747 187.547 282.228 199.123 282.228 214.701C282.228 228.163 290.06 234.795 305.752 239.482C315.127 242.312 320.101 242.083 320.101 248.114C320.101 251.287 317.157 253.774 312.269 253.774C305.809 254.517 299.921 250.087 298.807 243.684L279.027 248.029C282.4 263.721 294.09 273.039 312.012 273.039C320.873 273.267 329.419 269.752 335.536 263.349C340.052 258.376 342.538 251.887 342.481 245.142C342.853 238.568 340.366 232.165 335.707 227.535H335.736V227.563ZM104.814 231.708L80.1752 190.577H56.2798V272.953H77.2597V224.819L105.385 272.839H125.279V190.462H104.871L104.814 231.708Z" fill="white"/><path d="M33.9278 319.115C36.1859 318.714 38.4154 320.001 39.2157 322.144H50.9919C50.2487 316.571 43.9319 313.255 34.0993 313.255C22.8376 313.398 15.6919 318.229 15.6919 326.089C15.6919 333.235 22.7233 337.865 33.3848 337.865C43.2173 337.865 49.6485 334.464 50.849 328.661H39.2443C38.5869 330.891 36.729 332.006 33.7278 332.006C29.8119 332.006 27.6968 329.919 27.6968 325.775C27.6968 321.63 29.8976 319.115 33.9278 319.115ZM148.46 332.606V323.945C148.917 321.258 148.031 318.514 146.116 316.599C142.172 314.227 137.57 313.169 132.968 313.627C122.821 313.627 117.276 316.085 116.133 321.458H126.908C127.366 319.772 129.338 318.857 132.711 318.857C136.083 318.857 137.341 319.572 137.341 320.887V321.43C137.341 323.202 132.911 322.83 124.622 324.088C118.305 325.031 115.132 327.375 115.132 331.177C115.132 334.978 119.277 337.779 126.308 337.779C130.31 337.894 134.283 336.808 137.684 334.692C137.798 335.493 137.999 336.293 138.284 337.036H150.061V336.179C149.032 335.779 148.488 334.578 148.488 332.52L148.46 332.606ZM137.284 328.919C137.284 331.348 134.454 332.834 130.51 332.834C127.88 332.834 126.194 331.691 126.194 330.119C126.194 328.547 127.423 328.033 130.11 327.575C132.539 327.347 134.94 326.918 137.284 326.289V328.919ZM190.077 313.655C186.104 313.312 182.188 314.656 179.244 317.343V314.284H167.868V337.151H179.644V324.86C179.644 320.944 181.33 319.343 185.561 319.343C189.791 319.343 190.477 321.373 190.477 325.574V337.065H202.253V322.116C202.11 316.342 198.88 313.655 190.22 313.655H190.077ZM88.3213 313.97C84.3483 313.684 80.4038 314.97 77.3454 317.543V306.452H65.5692V337.436H77.3454V325.231C77.3454 321.316 79.0318 319.715 83.2621 319.715C87.4924 319.715 88.1784 321.744 88.1784 325.946V337.436H99.9546V321.744C99.9546 316.657 95.9244 313.97 88.4356 313.97H88.3213ZM245.213 313.655C241.24 313.312 237.324 314.656 234.38 317.343V314.284H223.204V337.151H234.981V324.86C234.981 320.944 236.667 319.343 240.897 319.343C245.128 319.343 245.814 321.373 245.814 325.574V337.065H257.59V322.116C257.447 316.342 254.188 313.655 245.499 313.655H245.213ZM290.946 313.427C280.056 313.427 272.996 318.086 272.996 325.746C272.996 333.406 280.199 337.837 291.232 337.837C300.379 337.837 306.924 334.921 308.896 330.005H297.635C296.806 331.663 294.805 332.52 291.632 332.52C287.488 332.52 285.23 330.805 285.23 327.575H309.382C309.411 327.118 309.411 326.689 309.382 326.232C309.468 318.229 302.465 313.455 291.232 313.455L290.946 313.427ZM284.629 323.173C285.087 320.115 287.545 318.457 291.289 318.457C295.034 318.457 297.892 320.172 297.949 323.173H284.629ZM325.532 306.424V337.408H337.308V306.424H325.532Z" fill="white"/></g><defs><clipPath id="clip0_105_264"><rect width="353" height="353" fill="white" transform="translate(0 0.5)"/></clipPath></defs></svg>